<svg width="16" height="16" viewBox="0 0 16 16" fill="none" xmlns="http://www.w3.org/2000/svg">
<path fill-rule="evenodd" clip-rule="evenodd" d="M4.64604 9.64604C4.69248 9.59948 4.74766 9.56253 4.80841 9.53733C4.86915 9.51212 4.93427 9.49915 5.00004 9.49915C5.06581 9.49915 5.13093 9.51212 5.19167 9.53733C5.25242 9.56253 5.30759 9.59948 5.35404 9.64604L8.00004 12.293L10.646 9.64604C10.7399 9.55215 10.8673 9.49941 11 9.49941C11.1328 9.49941 11.2602 9.55215 11.354 9.64604C11.4479 9.73993 11.5007 9.86726 11.5007 10C11.5007 10.1328 11.4479 10.2602 11.354 10.354L8.35404 13.354C8.30759 13.4006 8.25242 13.4375 8.19167 13.4628C8.13093 13.488 8.06581 13.5009 8.00004 13.5009C7.93427 13.5009 7.86915 13.488 7.80841 13.4628C7.74766 13.4375 7.69248 13.4006 7.64604 13.354L4.64604 10.354C4.59948 10.3076 4.56253 10.2524 4.53733 10.1917C4.51212 10.1309 4.49915 10.0658 4.49915 10C4.49915 9.93427 4.51212 9.86915 4.53733 9.80841C4.56253 9.74766 4.59948 9.69248 4.64604 9.64604V9.64604Z" fill="black"/>
<path fill-rule="evenodd" clip-rule="evenodd" d="M8 2.5C8.13261 2.5 8.25979 2.55268 8.35355 2.64645C8.44732 2.74021 8.5 2.86739 8.5 3V12C8.5 12.1326 8.44732 12.2598 8.35355 12.3536C8.25979 12.4473 8.13261 12.5 8 12.5C7.86739 12.5 7.74021 12.4473 7.64645 12.3536C7.55268 12.2598 7.5 12.1326 7.5 12V3C7.5 2.86739 7.55268 2.74021 7.64645 2.64645C7.74021 2.55268 7.86739 2.5 8 2.5V2.5Z" fill="black"/>
</svg>
